<?xml version="1.0" encoding="UTF-8"?>
<svg xmlns="http://www.w3.org/2000/svg" width="256" height="256" viewBox="0 0 256 256" role="img" aria-label="StormCom">
  <defs>
    <linearGradient id="g" x1="0" y1="0" x2="1" y2="1">
      <stop offset="0%" stop-color="#0ea5e9"/>
      <stop offset="100%" stop-color="#6366f1"/>
    </linearGradient>
  </defs>
  <rect width="256" height="256" rx="56" ry="56" fill="url(#g)"/>
  <g fill="#ffffff">
    <!-- Stylized S -->
    <path d="M168 60c-12-8-27-12-40-12-36 0-64 20-64 46 0 18 12 30 38 37l28 7c14 3 20 7 20 14 0 10-14 18-34 18-18 0-34-6-46-16l-12 22c16 12 40 20 62 20 42 0 70-20 70-48 0-22-14-34-42-40l-28-6c-14-4-18-8-18-14 0-10 12-16 30-16 16 0 30 5 40 12l16-20Z"/>
  </g>
</svg>
